:SAMPLES-PER-SECOND 30
:FULLY-SPECIFIED
:DEGREES
536
root  -3.63717 39.6677 12.6937 -177.404 23.9958 176.542
RightUpLeg  -10.0996 -9.73209 -6.47806
RightLeg  20.7847 -9.80657 -4.29318
RightFoot  -7.28866 -0.505918 12.8366
RightToes  -1.74624e-010 0 -3.6325e-017
Spine  4.01357 0.260099 -3.2904
Spine1  24.2699 -0.147128 0.898656
HEad  -12.6769 19.035 -10.8624
LeftShoulder1  0.995259 -1.01825 -15.1676
LeftArm  14.3037 6.49851 -60.7458
LeftForeArm  77.6598 -79.487 -86.3515
LeftHand  -2.20799 -3.30643 29.1709
RightShoulder  0.584568 -0.330125 11.3365
RightArm  10.5007 -7.93625 61.521
RightForeArm  146.889 65.5949 155.837
RightHand  -0.985766 4.18658 -12.1808
LeftUpLeg  -8.21646 0.76317 -0.328244
LeftLeg  14.7429 7.7914 2.47416
LeftFoot  -7.92305 0.252611 -6.87145
LeftToes  3.7286e-011 -1.5702e-010 -9.70233e-012
537
root  -3.68567 39.6856 12.7269 -177.682 24.1592 176.603
RightUpLeg  -9.73146 -9.58147 -6.51153
RightLeg  20.4741 -9.65778 -4.16419
RightFoot  -7.03236 -0.538308 12.9815
RightToes  -1.74624e-010 0 -3.6325e-017
Spine  4.1453 0.0632913 -3.8306
Spine1  24.1993 -0.640795 1.4942
HEad  -12.3734 19.3803 -10.5149
LeftShoulder1  0.986548 -1.03044 -14.8937
LeftArm  14.8277 6.25516 -61.1721
LeftForeArm  77.2958 -79.4738 -86.2515
LeftHand  -2.15175 -3.12197 29.0477
RightShoulder  0.574474 -0.389801 11.3711
RightArm  10.0307 -7.99526 61.5411
RightForeArm  146.997 65.2666 156.192
RightHand  -0.987121 4.09769 -12.3055
LeftUpLeg  -7.91944 1.09789 -0.290343
LeftLeg  14.6717 7.64401 2.39049
LeftFoot  -7.81194 0.255547 -6.77016
LeftToes  3.7286e-011 -1.5702e-010 -9.70233e-012
538
root  -3.71098 39.6657 12.7273 -178.205 24.2445 176.593
RightUpLeg  -9.13409 -9.03222 -6.56918
RightLeg  20.4018 -9.98999 -4.28265
RightFoot  -7.25162 -0.508642 12.8031
RightToes  -1.74624e-010 0 -3.6325e-017
Spine  4.03222 -0.139828 -4.2183
Spine1  24.6081 -1.02723 1.85287
HEad  -11.9704 19.7714 -10.2832
LeftShoulder1  1.00905 -1.1551 -14.7849
LeftArm  15.8052 5.3223 -60.9273
LeftForeArm  74.8297 -79.4364 -83.6715
LeftHand  -2.10681 -3.05121 28.6978
RightShoulder  0.576599 -0.398995 11.5088
RightArm  9.53052 -8.25657 61.6344
RightForeArm  147.033 65.2314 156.231
RightHand  -0.985959 4.05922 -12.3391
LeftUpLeg  -7.49394 1.08347 -0.359911
LeftLeg  14.9312 7.76617 2.4929
LeftFoot  -7.99641 0.242465 -6.65898
LeftToes  3.7286e-011 -1.5702e-010 -9.70233e-012
539
root  -3.7113 39.6323 12.7127 -178.651 24.3789 176.502
RightUpLeg  -8.65114 -8.48722 -6.66354
RightLeg  20.3876 -10.5326 -4.50071
RightFoot  -7.73619 -0.44871 12.537
RightToes  -1.74624e-010 0 -3.6325e-017
Spine  3.59298 -0.285777 -4.64293
Spine1  25.1443 -1.31653 2.16149
HEad  -11.5547 20.3203 -10.2234
LeftShoulder1  1.04738 -1.30885 -14.9007
LeftArm  16.8843 4.2902 -60.3517
LeftForeArm  71.9487 -79.3744 -80.2067
LeftHand  -2.11806 -3.20937 28.3392
RightShoulder  0.595766 -0.335844 11.7691
RightArm  9.23272 -8.75667 61.5526
RightForeArm  146.949 65.4181 156.029
RightHand  -0.984467 4.10178 -12.2685
LeftUpLeg  -7.20939 1.03518 -0.483952
LeftLeg  15.3484 7.93263 2.64362
LeftFoot  -8.26056 0.227735 -6.62518
LeftToes  3.7286e-011 -1.5702e-010 -9.70233e-012
540
root  -3.70927 39.6102 12.7026 -178.89 24.526 176.429
RightUpLeg  -8.37274 -7.91862 -6.73529
RightLeg  20.3448 -10.9497 -4.66758
RightFoot  -8.02275 -0.424184 12.7019
RightToes  -1.74624e-010 0 -3.6325e-017
Spine  3.17437 -0.422866 -5.06902
Spine1  25.3832 -1.59345 2.48278
HEad  -11.3362 21.0124 -10.2983
LeftShoulder1  1.05175 -1.28681 -15.1111
LeftArm  17.7228 3.7878 -59.9204
LeftForeArm  71.3071 -79.3602 -78.9383
LeftHand  -2.14174 -3.38554 28.0934
RightShoulder  0.619797 -0.262125 12.1179
RightArm  9.34525 -9.45953 61.2519
RightForeArm  146.93 65.5734 155.865
RightHand  -0.990134 4.18248 -12.238
LeftUpLeg  -7.16363 1.17594 -0.553112
LeftLeg  15.8076 7.87642 2.72658
LeftFoot  -8.40392 0.222042 -6.6928
LeftToes  3.7286e-011 -1.5702e-010 -9.70233e-012
541
root  -3.72796 39.6175 12.6907 -179.022 24.6682 176.518
RightUpLeg  -8.08744 -7.52197 -6.68433
RightLeg  20.1121 -11.04 -4.66278
RightFoot  -7.88023 -0.446381 12.9417
RightToes  -1.74624e-010 0 -3.6325e-017
Spine  3.04768 -0.576664 -5.2092
Spine1  25.3296 -1.83288 2.68469
HEad  -11.4627 21.6702 -10.5024
LeftShoulder1  1.01125 -1.06619 -15.2985
LeftArm  18.1 3.88298 -59.8911
LeftForeArm  72.7832 -79.4139 -80.0884
LeftHand  -2.13283 -3.39028 27.9678
RightShoulder  0.637284 -0.202363 12.3212
RightArm  9.67291 -10.2676 61.0352
RightForeArm  147.083 65.5628 155.893
RightHand  -1.00141 4.23897 -12.3044
LeftUpLeg  -7.20062 1.39453 -0.483847
LeftLeg  16.2503 7.73506 2.78016
LeftFoot  -8.2956 0.231938 -6.84922
LeftToes  3.7286e-011 -1.5702e-010 -9.70233e-012
542
root  -3.75778 39.6618 12.6739 -179.11 25.0051 176.776
RightUpLeg  -7.66252 -7.49263 -6.50177
RightLeg  19.4621 -10.7988 -4.4293
RightFoot  -7.40544 -0.490118 12.7484
RightToes  -1.74624e-010 0 -3.6325e-017
Spine  2.92113 -0.657538 -4.96699
Spine1  25.3998 -1.86051 2.60311
HEad  -11.7777 22.1308 -10.6873
LeftShoulder1  0.96555 -0.843335 -15.3869
LeftArm  17.9748 4.25163 -60.2377
LeftForeArm  74.0572 -79.4525 -81.3357
LeftHand  -2.11537 -3.32436 27.949
RightShoulder  0.64746 -0.150224 12.3228
RightArm  9.91564 -10.9793 61.0869
RightForeArm  147.218 65.4381 156.038
RightHand  -0.998176 4.20386 -12.3084
LeftUpLeg  -7.12526 1.75672 -0.249645
LeftLeg  16.5076 7.67634 2.81655
LeftFoot  -7.93712 0.25793 -7.07312
LeftToes  3.7286e-011 -1.5702e-010 -9.70233e-012
543
root  -3.77289 39.727 12.6621 -179.101 25.6853 177.082
RightUpLeg  -7.23407 -7.56784 -6.27267
RightLeg  18.4772 -10.3134 -4.02784
RightFoot  -6.80606 -0.53928 12.3975
RightToes  -1.74624e-010 0 -3.6325e-017
Spine  2.38995 -0.600315 -4.63137
Spine1  25.8212 -1.62223 2.28617
HEad  -11.8961 22.4601 -10.5765
LeftShoulder1  0.946867 -0.758292 -15.392
LeftArm  17.5116 4.706 -60.6844
LeftForeArm  74.0885 -79.4533 -81.4061
LeftHand  -2.12996 -3.37522 27.9775
RightShoulder  0.650932 -0.13781 12.3582
RightArm  10.115 -11.3483 61.2328
RightForeArm  147.18 65.2828 156.194
RightHand  -0.965729 4.03564 -12.1213
LeftUpLeg  -6.92816 2.50764 0.0937906
LeftLeg  16.46 7.5957 2.77154
LeftFoot  -7.51083 0.28926 -7.2994
LeftToes  3.7286e-011 -1.5702e-010 -9.70233e-012
544
root  -3.76987 39.7808 12.6537 -179.007 26.4819 177.342
RightUpLeg  -6.93571 -7.45626 -6.05403
RightLeg  17.5559 -9.76394 -3.64185
RightFoot  -6.28285 -0.589372 12.3242
RightToes  -1.74624e-010 0 -3.6325e-017
Spine  1.65967 -0.483813 -4.56824
Spine1  26.2433 -1.356 2.05629
HEad  -11.5874 22.88 -10.114
LeftShoulder1  0.951086 -0.761524 -15.4816
LeftArm  17.0603 5.29612 -60.8448
LeftForeArm  73.8013 -79.4487 -81.0567
LeftHand  -2.16635 -3.48792 28.0896
RightShoulder  0.644645 -0.195006 12.5213
RightArm  10.4591 -11.3332 61.2912
RightForeArm  147.106 65.1413 156.331
RightHand  -0.922575 3.80644 -11.8699
LeftUpLeg  -6.73516 3.40086 0.424296
LeftLeg  16.2864 7.49396 2.68636
LeftFoot  -7.2292 0.310781 -7.44501
LeftToes  3.7286e-011 -1.5702e-010 -9.70233e-012
